<svg xmlns="http://www.w3.org/2000/svg" viewBox="0 0 101.54 120"><defs><style>.cls-1{fill:#f9d1a2;}.cls-2{fill:#020100;}.cls-3{fill:#59964f;}</style></defs><title>シングル</title><g id="Layer_2" data-name="Layer 2"><g id="シングル"><path class="cls-1" d="M72.77,27.13h-.23C70.2,16.32,61.28,7.25,50.7,7.25S31.2,16.32,28.86,27.13h-.23a4,4,0,0,0-4,4v4.08a4,4,0,0,0,4,4H29c2.65,10.43,11.34,19.05,21.61,19.05s19.05-8.54,21.61-19.05h.38a4,4,0,0,0,4-4V31.14A3.8,3.8,0,0,0,72.77,27.13Z"/><rect class="cls-1" x="45.57" y="54.94" width="10.35" height="13.23"/><path class="cls-2" d="M66.58,3.33,50.71,0,34.84,3.33c-3.63.76-6.2,6.58-6.2,10.2V27.06l3.1,2.87,6.88-15.12L50.71,18,62.8,14.81l6.88,15.12,3.1-2.87V13.6C72.77,9.9,70.2,4.08,66.58,3.33Z"/><path class="cls-1" d="M87.21,76.26C85.17,71,79.8,68.17,74,68.17H27.5a15,15,0,0,0-13.23,8.09L0,120H12.66L24,85.32H77.53L88.83,120h12.71C94.72,99.09,87.25,76.21,87.21,76.26Z"/><rect class="cls-3" x="23.35" y="68.24" width="54.72" height="51.76"/><path class="cls-3" d="M80.33,68.17H21.16A11.94,11.94,0,0,0,9.75,76.48L4.69,92l17.16,5.59L27.52,80H74l5.67,17.53L96.83,92,91.77,76.48A12,12,0,0,0,80.33,68.17Z"/></g></g></svg>