<svg xmlns="http://www.w3.org/2000/svg" viewBox="0 0 36 36"><defs><style>.cls-1{fill:#51a748;}.cls-2,.cls-4{fill:#fff;}.cls-3{fill:none;}.cls-4{font-size:13px;font-family:HiraKakuPro-W6-90ms-RKSJ-H, Hiragino Kaku Gothic Pro;}</style></defs><title>シェアカー・レンタカー</title><g id="Layer_2" data-name="Layer 2"><g id="PC用アイコン"><g id="シェアカー_レンタカー" data-name="シェアカー・レンタカー"><circle class="cls-1" cx="18" cy="18" r="18"/><path class="cls-2" d="M31.67,24.58c-.08-.91-.34-1-1-1.41a2,2,0,0,1-1-1.26s-.66-2-1-3.3-1.48-1.16-2.28-1.16H17.46c-.8,0-1.9-.14-2.28,1.16s-1,3.3-1,3.3a2,2,0,0,1-1,1.26c-.69.36-.95.5-1,1.41a1.43,1.43,0,0,0,0,.29V29.3a1.45,1.45,0,0,0,1.44,1.44h.66v1.37a.49.49,0,0,0,.48.48h2a.49.49,0,0,0,.48-.48V30.74h9.62v1.37a.49.49,0,0,0,.48.48h2a.49.49,0,0,0,.48-.48V30.74h.58A1.45,1.45,0,0,0,31.7,29.3V24.87A1.36,1.36,0,0,0,31.67,24.58ZM15.35,28.21a1.53,1.53,0,1,1,1.53-1.53A1.53,1.53,0,0,1,15.35,28.21Zm8.53,1.32H20V28h3.92Zm-1.54-7H16.42c-.74,0-.7-.6-.5-1.16s.28-.88.54-1.84.5-1,1.12-1h8.56c.62,0,.86,0,1.12,1s.34,1.28.54,1.84.24,1.16-.5,1.16Zm6,5.65a1.53,1.53,0,1,1,1.53-1.53A1.53,1.53,0,0,1,28.33,28.21Z"/><rect class="cls-2" x="7.73" y="4.19" width="1.88" height="25.41"/><rect id="_スライス_" data-name="&lt;スライス&gt;" class="cls-3" width="36" height="36"/><text class="cls-4" transform="translate(10.65 13.81)">SR</text></g></g></g></svg>