<svg xmlns="http://www.w3.org/2000/svg" viewBox="0 0 36 36"><defs><style>.cls-1{fill:#bd7e36;}.cls-2{fill:#fff;}</style></defs><title>介護</title><g id="Layer_2" data-name="Layer 2"><g id="PC用アイコン"><g id="介護"><circle class="cls-1" cx="18" cy="18" r="18"/><circle class="cls-2" cx="20.17" cy="6.55" r="2.74"/><path class="cls-2" d="M22.39,12.6A2.36,2.36,0,0,0,17.77,12l-3,2.87L11.22,15A1.18,1.18,0,0,0,10,16.14a1.16,1.16,0,0,0,1,1.16v0h4.3c.92,0,2-1.29,2.07-1.36l-.17,3.59-5.33.4h0a2,2,0,0,0-1.51.84h0a1.94,1.94,0,0,0-.37.94L7.68,27.89a1.54,1.54,0,0,0-.17.42l0,.09h0a.82.82,0,0,0,0,.22,1.5,1.5,0,0,0,2.82.72h0l.08-.17,2.45-5.35h4.81l.38,0,.39,0h0a3.75,3.75,0,0,0,3.39-3.4h0l.47-7.11A2.13,2.13,0,0,0,22.39,12.6Z"/><path class="cls-2" d="M23.46,15.6,23.29,19a6.46,6.46,0,1,1-9.81,6.59L12,29a9,9,0,0,0,7.51,4.1,9.1,9.1,0,0,0,9-9.19A9.21,9.21,0,0,0,23.46,15.6Z"/></g></g></g></svg>