<svg xmlns="http://www.w3.org/2000/svg" viewBox="0 0 36 36"><defs><style>.cls-1{fill:#539f48;}.cls-2{fill:#fff;}.cls-3{fill:none;}</style></defs><title>パーキング</title><g id="Layer_2" data-name="Layer 2"><g id="PC用アイコン"><g id="パーキング"><circle class="cls-1" cx="18" cy="18" r="18"/><path class="cls-2" d="M32.68,27.53c-.06-.68-.26-.79-.78-1.06a1.52,1.52,0,0,1-.79-1S30.61,24,30.33,23s-1.12-.88-1.73-.88H21.93c-.6,0-1.43-.1-1.72.88s-.79,2.49-.79,2.49a1.52,1.52,0,0,1-.78,1c-.53.27-.72.38-.78,1.06a.89.89,0,0,0,0,.22V31.1a1.1,1.1,0,0,0,1.09,1.09h.5v1a.37.37,0,0,0,.37.36H21.3a.37.37,0,0,0,.36-.36v-1h7.27v1a.37.37,0,0,0,.37.36h1.51a.36.36,0,0,0,.36-.36v-1h.44A1.09,1.09,0,0,0,32.7,31.1V27.75A1.64,1.64,0,0,0,32.68,27.53ZM20.34,30.28a1.15,1.15,0,0,1-1.16-1.16,1.16,1.16,0,1,1,1.16,1.16Zm6.45,1h-3v-1.2h3ZM25.62,26H21.15c-.56,0-.53-.45-.38-.87s.21-.67.41-1.39S21.55,23,22,23H28.5c.46,0,.65,0,.84.74s.26,1,.41,1.39.18.88-.38.88Zm4.53,4.27A1.16,1.16,0,0,1,29,29.12a1.16,1.16,0,1,1,2.32,0A1.16,1.16,0,0,1,30.15,30.28Z"/><path class="cls-2" d="M9,28.66A23.71,23.71,0,0,0,9.22,25V9.9A26.57,26.57,0,0,0,9,6.28c1.2.06,2.07.09,3.55.09H18.4c2.72,0,4.62.64,6,2a6.53,6.53,0,0,1,1.73,4.81,7.17,7.17,0,0,1-1.87,5.15c-1.37,1.38-3.28,2-6,2H12.92V25a22.45,22.45,0,0,0,.22,3.64Zm9.26-11.54c2.58,0,4-1.37,4-3.84a3.77,3.77,0,0,0-.92-2.68,3.84,3.84,0,0,0-3.06-1H12.92v7.53Z"/><rect id="_スライス_" data-name="&lt;スライス&gt;" class="cls-3" width="36" height="36"/></g></g></g></svg>