<svg xmlns="http://www.w3.org/2000/svg" viewBox="0 0 36 36"><defs><style>.cls-1{fill:#df4936;}.cls-2{fill:#fff;}.cls-3{fill:none;}</style></defs><title>コンビニ</title><g id="Layer_2" data-name="Layer 2"><g id="PC用アイコン"><g id="コンビニ"><circle class="cls-1" cx="18" cy="18" r="18"/><path class="cls-2" d="M31,8.49H5V18.1H6.17V28.5H29.69V18.1H31ZM24.26,26.22H21.61V20.67h2.65Zm-3.94,0H17.68V20.67h2.64Zm7.26,0H25.44v-6.8H16.36v6.8H8.28V18.1h19.3Zm2.11-13.55H15v1.18H29.69v2.07H6.17V13.85h3.5V12.67H6.17V10.6H29.69Z"/><path class="cls-2" d="M10.51,14.8a2.39,2.39,0,0,0-.45,0,1.62,1.62,0,0,1,.09-.46,1.69,1.69,0,0,1,.49-.69,4,4,0,0,1,.58-.43c.33-.23.43-.34.43-.52s-.19-.39-.49-.39a.5.5,0,0,0-.45.2.67.67,0,0,0-.11.33l-.51-.06a1.11,1.11,0,0,1,.24-.57,1.06,1.06,0,0,1,.82-.31c.62,0,1,.3,1,.78a.72.72,0,0,1-.25.57,5.49,5.49,0,0,1-.6.44,3.23,3.23,0,0,0-.42.35.72.72,0,0,0-.2.32h1a3.45,3.45,0,0,0,.52,0v.47a4.36,4.36,0,0,0-.54,0Z"/><path class="cls-2" d="M14.48,14.17l-.36,0H14v.25a2.37,2.37,0,0,0,0,.41h-.5a2.46,2.46,0,0,0,0-.41v-.25h-1l-.44,0v-.44l.29-.33.84-1a3,3,0,0,0,.29-.39H14a5.21,5.21,0,0,0,0,.6v1.17h.13a2.1,2.1,0,0,0,.36,0ZM13.55,13a3,3,0,0,1,0-.43l-.24.32-.68.84h.9Z"/><rect id="_スライス_" data-name="&lt;スライス&gt;" class="cls-3" width="36" height="36"/></g></g></g></svg>