<svg xmlns="http://www.w3.org/2000/svg" viewBox="0 0 36 36"><defs><style>.cls-1{fill:#df4936;}.cls-2{fill:#fff;}.cls-3{fill:none;}</style></defs><title>ディスカウントストア・専門店</title><g id="Layer_2" data-name="Layer 2"><g id="PC用アイコン"><g id="ディスカウントストア_専門店" data-name="ディスカウントストア・専門店"><circle class="cls-1" cx="18" cy="18" r="18"/><path class="cls-2" d="M7.51,19.65a4.67,4.67,0,0,0-.72-1.17c0,.13-.09.16-.16.31a13.34,13.34,0,0,1-1.06-2c0,.85.07,1.48.07,2.36v4.5a18,18,0,0,0,.11,2.22H3.68a19,19,0,0,0,.11-2.22V19.94c.07-1.55.07-1.55.12-2.34a15.4,15.4,0,0,1-1.6,3.89,4.91,4.91,0,0,0-1.15-1.66,16.82,16.82,0,0,0,2.45-5.64H2.92a8.38,8.38,0,0,0-1.33.08V12.39a7.16,7.16,0,0,0,1.35.09h.83V11A12.13,12.13,0,0,0,3.68,9.1H5.73A13.31,13.31,0,0,0,5.64,11v1.51h.52a5.18,5.18,0,0,0,1-.07v1.32A10.05,10.05,0,0,0,10,9l2,.34c-.09.18-.13.29-.31.72,0,.13-.09.23-.18.45H14a8.12,8.12,0,0,0,1.57-.09l1.1,1.17a5,5,0,0,0-.49.79,16,16,0,0,1-2.47,3.28,16.48,16.48,0,0,0,4.59,2,5.65,5.65,0,0,0-1,1.89l-.8-.33c0,.22,0,.35,0,.76v4a10.43,10.43,0,0,0,.09,1.8H14.55v-.9H10v.92H8A11.69,11.69,0,0,0,8.09,24V19.4ZM5.7,14.19a10.25,10.25,0,0,0,2,3.12c-.17.16-.22.22-.35.36a16.34,16.34,0,0,0,3.55-1.93,11.79,11.79,0,0,1-1.51-1.69A11.3,11.3,0,0,1,8,15.55a5.32,5.32,0,0,0-1.13-1.34l-.67,0Zm9.45,4.65h.38A20.81,20.81,0,0,1,12.32,17a16.18,16.18,0,0,1-3.08,1.89ZM10,23.07h4.55V20.55H10Zm.57-10.77a3.49,3.49,0,0,1-.18.31,9.41,9.41,0,0,0,1.88,2,8.27,8.27,0,0,0,1.82-2.34Z"/><path class="cls-2" d="M30.25,17.4a10.93,10.93,0,0,1-2.29,4A46.23,46.23,0,0,1,33.49,24L32,25.7a35.21,35.21,0,0,0-5.55-2.95c-1.93,1.46-4.07,2.28-7.8,3a8.75,8.75,0,0,0-1-1.92A16.38,16.38,0,0,0,24.4,21.9a36.93,36.93,0,0,0-4.83-1.49,24.13,24.13,0,0,0,2.16-3H19.66a14,14,0,0,0-2,.11v-2a12,12,0,0,0,2,.09h3.1A11.51,11.51,0,0,0,23.84,13l2.16.33-.36.75-.7,1.46h6.84a12,12,0,0,0,2-.09v2a14.76,14.76,0,0,0-2-.11Zm-5.74-6.86a8.14,8.14,0,0,0-.09-1.37h2.19a10,10,0,0,0-.09,1.35v.33h4.86a17.27,17.27,0,0,0,2.07-.09,12.25,12.25,0,0,0-.07,1.38v1.33a7.77,7.77,0,0,0,.09,1.34h-2V12.65H19.86v2.16h-2A10.35,10.35,0,0,0,18,13.47V12.14a13.3,13.3,0,0,0-.09-1.38,17.17,17.17,0,0,0,2.07.09h4.56ZM24,17.4a24.06,24.06,0,0,1-1.39,2.14c1.78.52,2.21.65,3.49,1.12a7.56,7.56,0,0,0,2.09-3.26Z"/><rect id="_スライス_" data-name="&lt;スライス&gt;" class="cls-3" width="36" height="36"/></g></g></g></svg>