<svg xmlns="http://www.w3.org/2000/svg" width="18.25" height="18.085" viewBox="0 0 18.25 18.085"><g transform="translate(-663.75 -1976.679)"><path d="M9.043,18.085h0A9.1,9.1,0,0,1,7.22,17.9a9,9,0,0,1-3.233-1.361A9.068,9.068,0,0,1,.711,12.562a8.991,8.991,0,0,1-.527-1.7,9.127,9.127,0,0,1,0-3.645A8.994,8.994,0,0,1,1.544,3.987,9.069,9.069,0,0,1,5.523.711,8.989,8.989,0,0,1,7.22.184,9.1,9.1,0,0,1,9.043,0V4.44a4.6,4.6,0,0,0,0,9.206Z" transform="translate(663.75 1976.679)" fill="#5b2925"/><path d="M0,18.085H0v-4.44a4.571,4.571,0,0,0,1.763-.384A4.591,4.591,0,0,0,3.2,12.271a4.588,4.588,0,0,0,.967-1.454,4.576,4.576,0,0,0,.354-1.774,4.576,4.576,0,0,0-.354-1.774A4.588,4.588,0,0,0,3.2,5.815a4.59,4.59,0,0,0-1.437-.991A4.571,4.571,0,0,0,0,4.44V0A9.112,9.112,0,0,1,1.822.184a8.988,8.988,0,0,1,1.7.527,9.044,9.044,0,0,1,1.536.834,9.11,9.11,0,0,1,1.338,1.1A9.114,9.114,0,0,1,7.5,3.987a9.053,9.053,0,0,1,.834,1.536,9.011,9.011,0,0,1,.527,1.7,9.115,9.115,0,0,1,.184,1.822,9.114,9.114,0,0,1-.184,1.822,8.991,8.991,0,0,1-.527,1.7A9.037,9.037,0,0,1,7.5,14.1a9.111,9.111,0,0,1-1.1,1.338,9.1,9.1,0,0,1-1.338,1.1,9.05,9.05,0,0,1-1.536.834,8.986,8.986,0,0,1-1.7.527A9.1,9.1,0,0,1,0,18.085Z" transform="translate(672.957 1976.679)" fill="#15243d"/></g></svg>