<svg xmlns="http://www.w3.org/2000/svg" viewBox="0 0 36 36"><defs><style>.cls-1{fill:#df4936;}.cls-2{fill:#fff;}.cls-3{fill:none;}</style></defs><title>ドラッグストア</title><g id="Layer_2" data-name="Layer 2"><g id="PC用アイコン"><g id="ドラッグストア"><circle class="cls-1" cx="18" cy="18" r="18"/><path class="cls-2" d="M23.1,4.32a5.72,5.72,0,0,0-8,.9l-4.73,5.93,8.94,7.14L24,12.36A5.72,5.72,0,0,0,23.1,4.32ZM19.27,16.2l-6.91-5.52,3-3.78c1.63-2,4.23-2.68,6.27-1a4.37,4.37,0,0,1,.64,6.56Z"/><path class="cls-2" d="M9.66,12,4.93,17.91a5.72,5.72,0,0,0,8.94,7.14l4.73-5.93ZM6.44,22.53c-.91.28-1.56-.24-1.57-1.26A3.23,3.23,0,0,1,6,18.78c.67-.61.67-.38.67-.38.23.28-.18.45,0,1.6S7.36,22.24,6.44,22.53Z"/><path class="cls-2" d="M29.68,19.73l-.11-.09a6.87,6.87,0,0,0-9.71,9.6Z"/><path class="cls-2" d="M30.64,20.7l-9.83,9.53.18.15a6.88,6.88,0,0,0,9.65-9.68Z"/><rect id="_スライス_" data-name="&lt;スライス&gt;" class="cls-3" width="36" height="36"/></g></g></g></svg>