<svg xmlns="http://www.w3.org/2000/svg" viewBox="0 0 222.54 120.93"><defs><style>.cls-1{fill:#392114;}.cls-2{fill:#f9d1a2;}.cls-3{fill:#020100;}.cls-4{fill:#59964f;}.cls-5{fill:#e3954a;}.cls-6{fill:#ecbc67;}.cls-7{fill:#a57039;}.cls-8{fill:#decc4f;}</style></defs><title>ファミリー</title><g id="Layer_2" data-name="Layer 2"><g id="ファミリー"><g id="レイヤー_9" data-name="レイヤー 9"><path class="cls-1" d="M43.75.72h-.6A30.18,30.18,0,0,0,13,30.87L24.17,73.8H62.79L73.9,30.88A30.19,30.19,0,0,0,43.75.72Z"/><path class="cls-2" d="M72,77.58H15.18V75.39A13.75,13.75,0,0,1,28.93,61.64H58.25A13.75,13.75,0,0,1,72,75.39v2.19Z"/><path class="cls-2" d="M63.78,23.77h-.15C61.36,13.8,53.2,5.48,43.45,5.48s-17.91,8.31-20.1,18.29h-.23a3.7,3.7,0,0,0-3.7,3.7v3.78a3.7,3.7,0,0,0,3.7,3.7h.38c2.42,9.6,10.43,17.53,20,17.53S61,44.62,63.4,35h.38a3.7,3.7,0,0,0,3.7-3.7V27.47A3.76,3.76,0,0,0,63.78,23.77Z"/><path class="cls-1" d="M43.45.72C32.26.72,23.27,6.61,23.27,13.79v13s15.57.76,19.88-2.95a13.92,13.92,0,0,0,4.76-7.94s.3,7.94,6.5,11a13.88,13.88,0,0,0,9.3.68V13.8h0C63.62,6.62,54.63.72,43.45.72Z"/><path class="cls-2" d="M193.77,27.13h-.23C191.2,16.32,182.28,7.25,171.7,7.25s-19.5,9.07-21.84,19.88h-.23a4,4,0,0,0-4,4v4.08a4,4,0,0,0,4,4H150c2.65,10.43,11.34,19.05,21.61,19.05s19-8.54,21.61-19.05h.38a4,4,0,0,0,4-4V31.14A3.8,3.8,0,0,0,193.77,27.13Z"/><rect class="cls-2" x="166.57" y="54.94" width="10.35" height="13.23"/><path class="cls-3" d="M187.58,3.33,171.71,0,155.84,3.33c-3.63.76-6.2,6.58-6.2,10.2V27.06l3.1,2.87,6.88-15.12L171.71,18l12.09-3.17,6.88,15.12,3.1-2.87V13.6C193.77,9.9,191.2,4.08,187.58,3.33Z"/><path class="cls-2" d="M208.21,76.26c-2-5.29-7.41-8.09-13.23-8.09H148.5a15,15,0,0,0-13.23,8.09L121,120h12.66L145,85.32h53.58L209.83,120h12.71C215.72,99.09,208.25,76.21,208.21,76.26Z"/><rect class="cls-4" x="144.35" y="68.24" width="54.72" height="51.76"/><path class="cls-4" d="M201.33,68.17H142.16a11.94,11.94,0,0,0-11.41,8.31L125.69,92l17.16,5.59L148.52,80H195l5.67,17.53L217.83,92l-5.06-15.49A12,12,0,0,0,201.33,68.17Z"/><polygon class="cls-2" points="0 120 11.71 120 26.82 73.58 16.24 70.18 0 120"/><polygon class="cls-2" points="70.43 69.04 59.85 72.44 75.33 120 87.04 120 70.43 69.04"/><polygon class="cls-5" points="26.23 120 60.66 120 63.93 70.18 22.97 70.18 26.23 120"/><path class="cls-6" d="M56.9,61.64H30a8.53,8.53,0,0,0-8.54,8.54v9.75a9.41,9.41,0,0,0,1.36,4.76,8.7,8.7,0,0,0,7.33,4h26.6a8.6,8.6,0,0,0,7.33-4A8.29,8.29,0,0,0,65.44,80V70.25A8.5,8.5,0,0,0,56.9,61.64Z"/><polygon class="cls-2" points="48.21 61.64 48.21 49.39 38.69 49.39 38.69 61.64 32.49 61.64 43.45 76.52 54.4 61.64 48.21 61.64"/><path class="cls-2" d="M122.06,113.37a10.89,10.89,0,0,0-7.56-3.1H94.78a10.74,10.74,0,0,0-7.56,3.1A10.62,10.62,0,0,0,84,120.93h41.19A11.27,11.27,0,0,0,122.06,113.37Z"/><path class="cls-2" d="M86.61,78.68h.16c1.88-8.84,9.14-16.25,17.83-16.25s15.87,7.41,17.84,16.25h.15a3.23,3.23,0,0,1,3.25,3.25v3.33a3.23,3.23,0,0,1-3.25,3.25h-.38C120.09,97.05,113,104,104.53,104S89,97,86.84,88.51h-.3a3.22,3.22,0,0,1-3.25-3.25V81.93A3.29,3.29,0,0,1,86.61,78.68Z"/><path class="cls-7" d="M124.33,68.71v8.61L105,72.94l-20.1,4.38V68.71c0-3.63,2.19-6.88,5.74-9.3a25.56,25.56,0,0,1,13.91-3.85C115.48,55.63,124.33,61.53,124.33,68.71Z"/><polygon class="cls-2" points="107.78 110.27 107.78 99.54 101.35 99.54 101.35 110.27 98.48 110.27 104.53 117.6 110.65 110.27 107.78 110.27"/><path class="cls-8" d="M77.27,120H104.6v-9.65H91.23C86.52,110.3,80.48,116.35,77.27,120Z"/><path class="cls-8" d="M131.9,120c-3.22-3.65-9.26-9.7-14-9.65H104.56V120Z"/></g></g></g></svg>