<svg xmlns="http://www.w3.org/2000/svg" viewBox="0 0 36 36"><defs><style>.cls-1{fill:#bd7e36;}.cls-2{fill:#fff;}.cls-3{fill:none;}</style></defs><title>銀行</title><g id="Layer_2" data-name="Layer 2"><g id="PC用アイコン"><g id="銀行"><circle class="cls-1" cx="18" cy="18" r="18"/><path class="cls-2" d="M16.06,33.25c.13-1,.21-3.08.21-4.36V24.13H12.34a14.64,14.64,0,0,0-2.73.2v-4a13.77,13.77,0,0,0,2.73.21h3.93V19.8l-.86-2.33h-3a13.52,13.52,0,0,0-2.73.21v-4a14.17,14.17,0,0,0,2.73.2h1.45L10.24,7.2C9.48,6,8.81,5,8.42,4.52h4.47a10.65,10.65,0,0,0,1.25,2.55L18,14.68,21.84,7.1a10.72,10.72,0,0,0,1.24-2.58h4.5C27.24,5,26.2,6.45,25.74,7.2l-3.59,6.72H23.6a14.37,14.37,0,0,0,2.73-.2v4a13.83,13.83,0,0,0-2.73-.21h-3l-.86,2.35v.76h3.85a13.89,13.89,0,0,0,2.73-.21v4a14.71,14.71,0,0,0-2.73-.2H19.7v4.76a36.86,36.86,0,0,0,.21,4.36Z"/><rect id="_スライス_" data-name="&lt;スライス&gt;" class="cls-3" width="36" height="36"/></g></g></g></svg>