<?xml version="1.0" encoding="utf-8"?>
<!-- Generator: Adobe Illustrator 23.1.1, SVG Export Plug-In . SVG Version: 6.00 Build 0)  -->
<svg version="1.1" id="レイヤー_1" xmlns="http://www.w3.org/2000/svg" xmlns:xlink="http://www.w3.org/1999/xlink" x="0px"
	 y="0px" viewBox="0 0 1206.96 775.38" style="enable-background:new 0 0 1206.96 775.38;" xml:space="preserve">
<circle class="st0" cx="604.35" cy="766.39" r="0.87"/>
<path class="st0" d="M604.63,0.76C272.3,0.76,2.89,174.11,2.89,387.95c0,63.53,23.78,123.49,65.93,176.39L13.34,667.07l119.76-38.56
	c110.23,89.34,280.48,146.63,471.53,146.63c332.33,0,601.74-173.35,601.74-387.19S936.97,0.76,604.63,0.76z"/>
<path class="st1" d="M604.63,32.36c-316.84,0-573.69,159.2-573.69,355.58c0,63.39,26.77,122.91,73.68,174.45l-27.54,50.99
	l60.02-19.33c104,90.47,274.65,149.47,467.53,149.47c316.84,0,573.69-159.2,573.69-355.58S921.47,32.36,604.63,32.36z"/>
</svg>
