<svg xmlns="http://www.w3.org/2000/svg" viewBox="0 0 174.25 238.79"><defs><style>.cls-1{fill:#392114;}.cls-2{fill:#f9d1a2;}.cls-3{fill:#e3954a;}.cls-4{fill:#ecbc67;}</style></defs><title>女性</title><g id="Layer_2" data-name="Layer 2"><g id="女性"><path class="cls-1" d="M87.59,0H86.38A60.44,60.44,0,0,0,26,60.36l22.4,85.94h77.31l22.22-85.94A60.42,60.42,0,0,0,87.59,0Z"/><path class="cls-2" d="M144.16,153.87H30.39v-4.38A27.52,27.52,0,0,1,57.92,122h58.69a27.52,27.52,0,0,1,27.53,27.53v4.38Z"/><path class="cls-2" d="M127.69,46.15h-.31C122.84,26.17,106.5,9.53,87,9.53S51.13,26.17,46.75,46.15h-.46a7.41,7.41,0,0,0-7.41,7.4v7.57a7.42,7.42,0,0,0,7.41,7.41h.76C51.89,87.75,67.93,103.62,87,103.62s35.09-15.73,39.93-35.09h.77a7.42,7.42,0,0,0,7.4-7.41V53.55A7.51,7.51,0,0,0,127.69,46.15Z"/><path class="cls-1" d="M87,0c-22.41,0-40.4,11.79-40.4,26.17v26s31.17,1.52,39.79-5.9,9.53-15.9,9.53-15.9.6,15.9,13,21.94c9.07,4.39,18.61,1.36,18.61,1.36V26.17h0C127.36,11.79,109.37,0,87,0Z"/><polygon class="cls-2" points="0 238.79 23.44 238.79 53.69 145.84 32.51 139.04 0 238.79"/><polygon class="cls-2" points="141 136.77 119.82 143.58 150.81 238.79 174.25 238.79 141 136.77"/><polygon class="cls-3" points="52.51 238.79 121.44 238.79 127.98 139.04 45.98 139.04 52.51 238.79"/><path class="cls-4" d="M113.91,121.94H60.06A17.08,17.08,0,0,0,43,139v19.52a18.83,18.83,0,0,0,2.72,9.52,17.43,17.43,0,0,0,14.68,8h53.25a17.22,17.22,0,0,0,14.68-8A16.59,16.59,0,0,0,131,158.7V139.18A17,17,0,0,0,113.91,121.94Z"/><polygon class="cls-2" points="96.51 121.94 96.51 97.44 77.46 97.44 77.46 121.94 65.04 121.94 86.98 151.75 108.91 121.94 96.51 121.94"/></g></g></svg>