<svg xmlns="http://www.w3.org/2000/svg" viewBox="0 0 151.45 116.16"><defs><style>.cls-1{fill:#f9d1a2;}.cls-2{fill:#b2b3b5;}.cls-3{fill:#b32e31;}.cls-4{fill:#658b49;}.cls-5{fill:#96775b;}.cls-6{fill:#fff;}</style></defs><title>高齢層</title><g id="Layer_2" data-name="Layer 2"><g id="高齢層"><path class="cls-1" d="M59.23,75.41c.6-4.21-1.73-7.89-5.19-8.5l-13.9-.52-1-8.65c7.59-3.76,18.72-14.88,12.78-30-3-7.67-9.7-13-17.37-13s-14.43,5.33-17.44,13c-5.64,14.36,3.83,25.72,12,29.7l-1.35,9-15.41.15c-3.46.61-5.72,4.59-5.19,8.8Z"/><path class="cls-1" d="M134.34,73.83c-.07-3.61-2.25-6.69-5.26-7.29l-11.88-.15-.38-10.23a28,28,0,0,0,9.48-10.45,21.55,21.55,0,0,0,.52-17.89c-3-7.67-9.62-13-17.36-13S95,20.15,92,27.82a21.9,21.9,0,0,0,.38,17.89,25.94,25.94,0,0,0,9,10.23l-.08,10.75-13.91-.08c-3,.53-5.19,3.61-5.26,7.22Z"/><path class="cls-2" d="M108.93,9.55C91,9.55,86.07,23.61,90.73,40.3l1.73-.08L94,28.27c3.24.83,4.89.9,11.28.3,5.56-.45,13.08-4.06,16.17-5.41,2.85-1.28,3.53,3.31,3.6,4.28.53,4.14,1.51,12.93,1.51,12.93h1.73C134.19,19.85,125.32,9.55,108.93,9.55Z"/><path class="cls-2" d="M41.64,10.45A6,6,0,0,0,43,6.77C43,3,39.16,0,34.5,0S26,3,26,6.77a5.86,5.86,0,0,0,1.35,3.61C13.52,14.06,10.74,29.47,15.93,41.2L17.65,41l1-16.09q16.35-9.13,31.2,0l1.36,16.16,1.8.08C57.58,26.62,55.1,13.76,41.64,10.45Z"/><path class="cls-3" d="M18.41,43.23A2.26,2.26,0,1,1,16.15,41,2.27,2.27,0,0,1,18.41,43.23Z"/><path class="cls-3" d="M54.42,43.23A2.26,2.26,0,1,1,52.16,41,2.26,2.26,0,0,1,54.42,43.23Z"/><path class="cls-2" d="M116.82,51.58H102.46V50.9a3.61,3.61,0,0,1,3.61-3.61h7.15a3.61,3.61,0,0,1,3.6,3.61Z"/><path class="cls-4" d="M143.21,75.94c-1.65-10.53-12.48-9.55-25.78-9.48a8.18,8.18,0,0,1-16.17.3c-15.86-.15-26.84-2.33-27.59,10.68l-2.36,38.72h62.26l.25-14.74,4.27,14.74h13.36Z"/><path class="cls-5" d="M63.29,77.22C62.39,65.49,54,66.46,45,66.46c-7,6.09-14.81,5.87-23.31,0-8.72-.3-17.44-.45-18.27,9L0,116.16H10.16l1.71-9.7,1.54,9.7h39L54.12,106l1.7,10.15H66.18Z"/><polygon class="cls-6" points="86.06 101.42 86.06 116.16 81.79 116.16 86.06 101.42"/></g></g></svg>