<svg xmlns="http://www.w3.org/2000/svg" viewBox="0 0 172.22 119.28"><defs><style>.cls-1{fill:#c895c3;}.cls-2{fill:#866a5f;}.cls-3{fill:#f9d1a2;}.cls-4{fill:#a19967;}.cls-5{fill:#f4e7e4;}.cls-6{fill:#616264;}.cls-7{fill:#d6daba;}</style></defs><title>中年層</title><g id="Layer_2" data-name="Layer 2"><g id="中年層"><path class="cls-1" d="M72,76.86H15.18V74.67A13.75,13.75,0,0,1,28.93,60.92H58.25A13.75,13.75,0,0,1,72,74.67v2.19Z"/><path class="cls-2" d="M43.75,0h-.6A30.18,30.18,0,0,0,13,30.15L24.17,73.08H62.79L73.9,30.16A30.19,30.19,0,0,0,43.75,0Z"/><path class="cls-3" d="M63.78,23.05h-.15C61.36,13.08,53.2,4.76,43.45,4.76s-17.91,8.31-20.1,18.29h-.23a3.7,3.7,0,0,0-3.7,3.7v3.78a3.7,3.7,0,0,0,3.7,3.7h.38c2.42,9.6,10.43,17.53,20,17.53S61,43.9,63.4,34.23h.38a3.7,3.7,0,0,0,3.7-3.7V26.75A3.76,3.76,0,0,0,63.78,23.05Z"/><path class="cls-2" d="M43.45,0C32.26,0,23.27,5.89,23.27,13.07v13s15.57.76,19.88-2.95a13.92,13.92,0,0,0,4.76-7.94s.3,7.94,6.5,11a13.88,13.88,0,0,0,9.3.68V13.08h0C63.62,5.9,54.63,0,43.45,0Z"/><path class="cls-3" d="M143.45,26.41h-.23C140.88,15.6,132,6.53,121.38,6.53s-19.5,9.07-21.84,19.88h-.23a4,4,0,0,0-4,4V34.5a4,4,0,0,0,4,4h.38C102.34,48.94,111,57.56,121.3,57.56s19-8.54,21.61-19.05h.38a4,4,0,0,0,4-4V30.42A3.8,3.8,0,0,0,143.45,26.41Z"/><rect class="cls-3" x="116.25" y="54.22" width="10.35" height="13.23"/><path class="cls-4" d="M157.89,75.54c-2-5.29-7.41-8.09-13.23-8.09H98.18A15,15,0,0,0,85,75.54L70.68,119.28H83.34L94.63,84.6h53.58l11.3,34.68h12.71C165.4,98.37,157.93,75.49,157.89,75.54Z"/><rect class="cls-4" x="94.03" y="68.52" width="54.72" height="50.76"/><polygon class="cls-1" points="0 119.28 11.71 119.28 26.82 72.86 16.24 69.46 0 119.28"/><polygon class="cls-1" points="70.43 68.32 59.85 71.72 75.33 119.28 87.04 119.28 70.43 68.32"/><polygon class="cls-1" points="26.23 119.28 60.66 119.28 63.93 69.46 22.97 69.46 26.23 119.28"/><polygon class="cls-3" points="48.21 60.92 48.21 48.67 38.69 48.67 38.69 60.92 32.49 60.92 43.45 75.8 54.4 60.92 48.21 60.92"/><polygon class="cls-5" points="48.21 60.92 48.21 55.67 38.69 55.67 38.69 60.92 32.49 60.92 43.45 75.8 54.4 60.92 48.21 60.92"/><path class="cls-6" d="M120.6,0C98.86,0,92.84,16.33,98.5,35.73l2.1-.09,1.92-13.89c3.92,1,5.93,1,13.79.35,6.75-.52,15.89-4.72,19.63-6.29,3.38-1.48,4.2,3.84,4.38,5,.55,4.8,1.83,15.11,1.83,15.11h2.1C151.28,12,140.51,0,120.6,0Z"/><path class="cls-1" d="M43.81,76.86c-.17-.5-11.32-15.94-11.32-15.94l-11.6,2.6V74Z"/><path class="cls-1" d="M42.94,76.86c.17-.5,11.32-15.94,11.32-15.94l11.6,2.6V74Z"/><polygon class="cls-7" points="121.31 67.45 121.31 95.98 108 67.45 121.31 67.45"/><polygon class="cls-7" points="121.31 67.45 121.31 95.98 134.61 67.45 121.31 67.45"/><polygon class="cls-3" points="116.25 67.45 121.05 76.44 126.6 67.45 116.25 67.45"/><polygon class="cls-4" points="113.62 83.83 113.06 83.27 120.64 75.68 121.09 76.37 113.62 83.83"/><polygon class="cls-4" points="128.56 83.83 129.13 83.27 121.53 75.66 121.1 76.37 128.56 83.83"/></g></g></svg>