<svg xmlns="http://www.w3.org/2000/svg" viewBox="0 0 36 36"><defs><style>.cls-1{fill:#f89a41;}.cls-2{fill:#fff;}.cls-3{fill:none;}</style></defs><title>幼稚園</title><g id="Layer_2" data-name="Layer 2"><g id="PC用アイコン"><g id="幼稚園"><circle class="cls-1" cx="18" cy="18" r="18"/><path class="cls-2" d="M31.94,11.2l-9.16.05a4.83,4.83,0,0,0-9.59.05L4,11.36,2.74,17.13H4.58V31.25h26.5V17.13h2.13ZM29.28,29.81H20.82V25.57a2.85,2.85,0,0,0-5.7,0v4.24h-9V17.19h8.43V12.14a3.39,3.39,0,1,1,6.77,0v5.05h7.92Z"/><rect class="cls-2" x="22.58" y="19.72" width="2.3" height="4.65"/><rect class="cls-2" x="25.66" y="19.72" width="2.3" height="4.65"/><rect class="cls-2" x="7.9" y="19.72" width="2.3" height="4.65"/><rect class="cls-2" x="10.97" y="19.72" width="2.3" height="4.65"/><rect class="cls-2" x="15.4" y="11.31" width="2.14" height="2.14"/><rect class="cls-2" x="18.39" y="11.31" width="2.14" height="2.14"/><rect class="cls-2" x="15.4" y="14.17" width="2.14" height="2.14"/><rect class="cls-2" x="18.39" y="14.17" width="2.14" height="2.14"/><rect id="_スライス_" data-name="&lt;スライス&gt;" class="cls-3" width="36" height="36"/></g></g></g></svg>