<svg xmlns="http://www.w3.org/2000/svg" viewBox="0 0 240 240"><defs><style>.cls-1{fill:#ddd;}.cls-2{fill:#436590;}.cls-3{fill:#fff;}</style></defs><title>持ち家</title><g id="Layer_2" data-name="Layer 2"><g id="持ち家"><circle class="cls-1" cx="120" cy="120" r="120"/><ellipse class="cls-2" cx="120" cy="120" rx="109.72" ry="106.65"/><path class="cls-3" d="M99.5,118l1.26,8.12-16.94,6V174.4c0,10.08-4.62,11.62-23.24,11.34a40.56,40.56,0,0,0-3.08-8.68c6.58.14,12.6.14,14.42.14s2.66-.7,2.66-2.66V135.48c-6.58,2.24-12.6,4.34-17.36,5.88a2.27,2.27,0,0,1-1.68,2.24l-3.92-11.06c6.3-1.68,14.28-4.06,23-6.72V92.92H53.3V84.1H74.58V55.82l12,.7c-.14,1.12-.84,1.68-2.8,2V84.1h16.1v8.82H83.82v30Zm83-6.44H164.74a3.35,3.35,0,0,1-2.8,1.82v16h18.62V138H161.94v36.82c0,10.78-5.46,11.06-25.34,11.06a33.8,33.8,0,0,0-3.22-8.82c3.92.14,7.56.14,10.5.14H150c2,0,2.52-.56,2.52-2.38V138h-51v-8.68h51V111.54H98.38v-8.82h37V82.56H107.62V73.88h27.72V55.68l12.18.84c-.14,1-1,1.68-2.8,2v15.4h28.84v8.68H144.72v20.16h37.8Zm-55.16,59.78c-3.22-6.58-10.92-16.8-17.64-24.08l7.14-4.48c6.58,7.14,14.42,16.94,17.92,23.24Z"/></g></g></svg>