<svg xmlns="http://www.w3.org/2000/svg" viewBox="0 0 36 36"><defs><style>.cls-1{fill:#bd7e36;}.cls-2{fill:#fff;}.cls-3{fill:none;}</style></defs><title>警察・消防</title><g id="Layer_2" data-name="Layer 2"><g id="PC用アイコン"><g id="警察_消防" data-name="警察・消防"><circle class="cls-1" cx="18" cy="18" r="18"/><rect class="cls-2" x="16.31" y="23.17" width="3.43" height="6.33"/><path class="cls-2" d="M29.4,8.27H21.78a.79.79,0,0,0-.36-.69c-.31-.24-2-1.36-2.55-1.72s-.56-.39-.86-.39h0c-.29,0-.28,0-.85.39s-2.24,1.48-2.55,1.72a.77.77,0,0,0-.36.69H6.6a.46.46,0,0,0-.46.45v1.51a.46.46,0,0,0,.46.45h.48V29.5H15.2V22.24h5.58V29.5h8.11V10.68h.51a.46.46,0,0,0,.46-.45V8.72A.46.46,0,0,0,29.4,8.27Zm-12.1.27L18,7.09l.72,1.45,1.6.23L19.17,9.9l.27,1.59L18,10.74l-1.43.75.28-1.59L15.7,8.77ZM6.68,9.81V9h7.57v.77Zm6.19,13.83a.61.61,0,0,1-.6.61H10.06a.61.61,0,0,1-.6-.61V21.43a.6.6,0,0,1,.6-.6h2.21a.6.6,0,0,1,.6.6Zm0-6.16a.6.6,0,0,1-.6.6H10.06a.6.6,0,0,1-.6-.6V15.27a.61.61,0,0,1,.6-.61h2.21a.61.61,0,0,1,.6.61Zm8.7,4.29H14.5V20.68h7.07Zm-5.26-4.29V15.27a.61.61,0,0,1,.6-.61h2.21a.61.61,0,0,1,.6.61v2.21a.6.6,0,0,1-.6.6H16.91A.6.6,0,0,1,16.31,17.48ZM18,14.1a4.25,4.25,0,0,1-4.16-3.41h.47a3.77,3.77,0,0,0,7.38,0h.47A4.25,4.25,0,0,1,18,14.1Zm8.45,9.54a.62.62,0,0,1-.61.61H23.64a.61.61,0,0,1-.6-.61V21.43a.6.6,0,0,1,.6-.6h2.21a.61.61,0,0,1,.61.6Zm0-6.16a.61.61,0,0,1-.61.6H23.64a.6.6,0,0,1-.6-.6V15.27a.61.61,0,0,1,.6-.61h2.21a.62.62,0,0,1,.61.61Zm2.8-7.67H21.8a3,3,0,0,0,0-.31V9h7.48Z"/><rect id="_スライス_" data-name="&lt;スライス&gt;" class="cls-3" width="36" height="36"/></g></g></g></svg>