<svg xmlns="http://www.w3.org/2000/svg" viewBox="0 0 240 240"><defs><style>.cls-1{fill:#ddd;}.cls-2{fill:#aac2da;}.cls-3{fill:#fff;}</style></defs><title>借家_1</title><g id="Layer_2" data-name="Layer 2"><g id="借家"><circle class="cls-1" cx="120" cy="120" r="120"/><ellipse class="cls-2" cx="120" cy="120" rx="109.72" ry="106.65"/><path class="cls-3" d="M70.1,101.41a165.21,165.21,0,0,1-16,23,78.06,78.06,0,0,0-4.9-8.82C62.12,101,74.72,76.63,82.56,52.41l11.06,3.64c-.28,1-1.4,1.54-3.08,1.4A253.12,253.12,0,0,1,78.78,85.17l3.22,1c-.14.84-1,1.54-2.8,1.82v93.8H70.1Zm88.2-3.08h25.62V107H86.62V98.33H112.1V78H92.64v-8.4H112.1V52.83l11.9.84c-.14,1-1,1.68-2.8,1.82V69.63h27.86V52.83l12,.84c-.14,1-1,1.68-2.8,2v14h20.3V78H158.3ZM102,182.05v-63h69v62.3h-9.38v-5.88H111.12v6.58Zm59.64-54.88H111.12v16h50.54Zm-50.54,40.18h50.54V150.83H111.12ZM121.2,78v20.3h27.86V78Z"/></g></g></svg>