<svg id="レイヤー_1" data-name="レイヤー 1" xmlns="http://www.w3.org/2000/svg" viewBox="0 0 217.05 252"><defs></defs><rect class="cls-1" x="3" y="29" width="178.71" height="220"/><polygon class="cls-2" points="156.89 3 35.28 3 35.28 223 214 223 214 60.11 185.45 31.55 156.89 3"/><line class="cls-3" x1="52.31" y1="32.07" x2="136.64" y2="32.07"/><line class="cls-3" x1="52.31" y1="54.72" x2="136.64" y2="54.72"/><line class="cls-3" x1="52.31" y1="78.7" x2="136.64" y2="78.7"/><line class="cls-3" x1="55.92" y1="202.56" x2="193.03" y2="202.56"/><line class="cls-3" x1="58.63" y1="202.56" x2="58.63" y2="121.92"/><polygon class="cls-2" points="209.74 57.64 160.08 57.64 160.08 7.45 185.64 33.86 209.74 57.64"/><circle class="cls-3" cx="85.25" cy="148.73" r="6.81"/><circle class="cls-3" cx="150.4" cy="138.55" r="6.81"/><circle class="cls-3" cx="117.83" cy="125.55" r="6.81"/><circle class="cls-3" cx="182.97" cy="109.55" r="6.81"/><line class="cls-3" x1="91.36" y1="145.72" x2="112.81" y2="130.15"/><line class="cls-3" x1="157.21" y1="131.74" x2="177.1" y2="113"/><line class="cls-3" x1="141.55" y1="135.84" x2="124.47" y2="128.04"/></svg>