<svg xmlns="http://www.w3.org/2000/svg" viewBox="0 0 36 36"><defs><style>.cls-1{fill:#df4936;}.cls-2{fill:#fff;}.cls-3{fill:none;}</style></defs><title>飲食店</title><g id="Layer_2" data-name="Layer 2"><g id="PC用アイコン"><g id="飲食店"><circle class="cls-1" cx="18" cy="18" r="18"/><path class="cls-2" d="M25.53,6.5c-2.6,1.95-3.87,10.18-4,11.86s-.6,8.94,0,11.58l1.83,2.11,0,3.11a18.25,18.25,0,0,0,3.6-1.62l-.12-2.16,1-1.08L28.36,8C28,6.2,28.12,4.54,25.53,6.5Z"/><path class="cls-2" d="M17,6.7c-.06,2-.46,6.61-.58,7.93s-1.75,2.33-1.87.25-.12-6.14-.28-7.82S12.6,5.29,12.44,7s-.17,6-.29,8-1.67,1.56-1.92,0c-.21-1.39-.17-5.76-.48-8.54-.16-1.48-1.35-.68-1.51.52S7.6,14,7.64,16A11.36,11.36,0,0,0,9,21.07a31.22,31.22,0,0,0,2.87,3.36l-.3,10.28a17.77,17.77,0,0,0,3.79,1c-.12-3.31-.35-9.07-.37-10a2.8,2.8,0,0,1,1-2.75,9,9,0,0,0,3-5c.56-2.72,0-8.43-.22-10.31S17.09,4.66,17,6.7Z"/><rect id="_スライス_" data-name="&lt;スライス&gt;" class="cls-3" width="36" height="36"/></g></g></g></svg>