<svg xmlns="http://www.w3.org/2000/svg" viewBox="0 0 36 36"><defs><style>.cls-1{fill:#df4936;}.cls-2{fill:#fff;}.cls-3{fill:none;}</style></defs><title>ショッピング</title><g id="Layer_2" data-name="Layer 2"><g id="PC用アイコン"><g id="ショッピング"><circle class="cls-1" cx="18" cy="18" r="18"/><path class="cls-2" d="M25.22,14.14A16.91,16.91,0,0,0,25,9.52,9,9,0,0,0,21.68,3.4C19.75,1.86,15.9,2.27,14.92,3a7,7,0,0,0-2.87,3.53,20.34,20.34,0,0,0-1.14,7.64,7.8,7.8,0,0,0-6.66,7.69v1.43A7.78,7.78,0,0,0,12,31.05H24.23A7.78,7.78,0,0,0,32,23.28V21.85A7.8,7.8,0,0,0,25.22,14.14ZM13.12,7.82a8.06,8.06,0,0,1,2.46-3.48c1.22-1,2.85-1.25,4.9,0S23.39,8.4,23.6,9.82a14.85,14.85,0,0,1,.09,4.25H12.39C12.35,11.09,12.5,9.39,13.12,7.82Z"/><rect id="_スライス_" data-name="&lt;スライス&gt;" class="cls-3" width="36" height="36"/></g></g></g></svg>