<svg xmlns="http://www.w3.org/2000/svg" viewBox="0 0 36 36"><defs><style>.cls-1{fill:#df4936;}.cls-2{fill:#fff;}.cls-3{fill:none;}</style></defs><title>カート</title><g id="Layer_2" data-name="Layer 2"><g id="PC用アイコン"><g id="カート"><circle class="cls-1" cx="18" cy="18" r="18"/><path class="cls-2" d="M12,26.12a2.27,2.27,0,1,0,2.27,2.27A2.27,2.27,0,0,0,12,26.12Z"/><path class="cls-2" d="M28.63,26.12a2.27,2.27,0,1,0,2.27,2.27A2.27,2.27,0,0,0,28.63,26.12Z"/><path class="cls-2" d="M30.41,23.23h-18L13,22.18l-.59-1.84,16.86-.8a1.22,1.22,0,0,0,1.22-1.22v-7.8A1.22,1.22,0,0,0,29.26,9.3L9.58,9.49a1,1,0,0,0,.22-.65A1.09,1.09,0,0,0,8.71,7.75H4.43a1.09,1.09,0,0,0,0,2.18h3L10.6,22l-.8,1.37a1.15,1.15,0,0,0,.57,2.16h20a1.16,1.16,0,0,0,0-2.31ZM27.08,10.37h1.55V18H27.08Zm-3.08,0h1.56V18H24Zm-2.92,0h1.55V18H21.08Zm-3.08,0h1.55V18H18Zm-2.95,0H16.6V18H15.05Zm-3.08,0h1.56V18H12Z"/><rect id="_スライス_" data-name="&lt;スライス&gt;" class="cls-3" width="36" height="36"/></g></g></g></svg>