<svg xmlns="http://www.w3.org/2000/svg" viewBox="0 0 36.25 36"><defs><style>.cls-1{fill:#f89a41;}.cls-2{fill:#fff;}.cls-3{fill:none;}</style></defs><title>高大専</title><g id="Layer_2" data-name="Layer 2"><g id="PC用アイコン"><g id="高大専"><circle class="cls-1" cx="18" cy="18" r="18"/><path class="cls-2" d="M29.08,21.7V15.25H18.93V21.7H11.77V34.3h9.88V29.78h4.4V34.3h10.2V21.7ZM17.4,32.54H14.17V29.31H17.4Zm0-5.33H14.17V24H17.4Zm8.23,0H22.39V24h3.24Zm-1.68-6a2.45,2.45,0,1,1,2.45-2.45A2.45,2.45,0,0,1,24,21.18Zm9.73,11.36H30.44V29.31h3.24Zm0-5.33H30.44V24h3.24Z"/><path class="cls-2" d="M24,17.17a1.56,1.56,0,1,0,1.56,1.56A1.56,1.56,0,0,0,24,17.17ZM24.28,19a.3.3,0,0,1-.3.3H23A.35.35,0,0,1,22.6,19a.35.35,0,0,1,.35-.35h.73v-1a.29.29,0,0,1,.3-.3.3.3,0,0,1,.3.3Z"/><path class="cls-2" d="M8.37,4.79a3.13,3.13,0,0,0-.06-.63H9.54a3.18,3.18,0,0,0-.06.62v.13h2.95a7.57,7.57,0,0,0,1-.06v1a7.7,7.7,0,0,0-1-.05H5.54a7.7,7.7,0,0,0-1,.05v-1a8.17,8.17,0,0,0,1.09.06H8.37ZM4.79,9.7a8.84,8.84,0,0,0,0-.91c.32,0,.61,0,1,0h6.48a8.12,8.12,0,0,0,1,0,8.4,8.4,0,0,0,0,.9v2.54c0,.5-.06.69-.24.86s-.5.24-1.2.24l-.58,0h-.32a2.27,2.27,0,0,0-.22-1c.55.06,1,.09,1.26.09s.24-.05.24-.21V9.7H5.85v2.65a6.83,6.83,0,0,0,.06,1.1H4.73a7.26,7.26,0,0,0,.06-1.1ZM6,6.89c0-.32,0-.49,0-.73a8.58,8.58,0,0,0,1,0h4.16a7.41,7.41,0,0,0,.89,0c0,.26,0,.41,0,.73v.86a6.86,6.86,0,0,0,0,.74,7.8,7.8,0,0,0-.94,0H6.94a8.57,8.57,0,0,0-.94,0,7.12,7.12,0,0,0,0-.74Zm5.1,4.65a5.94,5.94,0,0,0,0,.67c-.19,0-.56,0-.83,0H7.81v.5h-1a5.24,5.24,0,0,0,0-.81V10.71a5.92,5.92,0,0,0,0-.65c.23,0,.44,0,.81,0h2.74c.38,0,.52,0,.82,0a5.29,5.29,0,0,0,0,.63ZM7.07,7.62h3.87V7H7.07Zm.74,3.77h2.36v-.54H7.81Z"/><path class="cls-2" d="M18.57,7.69A7,7,0,0,0,20,10.31a7,7,0,0,0,2.75,1.89A4.1,4.1,0,0,0,22,13.35a8.12,8.12,0,0,1-2.47-1.83,7.46,7.46,0,0,1-1.51-2.41,6,6,0,0,1-1.63,2.67A7.41,7.41,0,0,1,14,13.35a3.93,3.93,0,0,0-.7-1A7.18,7.18,0,0,0,15,11.45a5,5,0,0,0,2.25-3.76H14.85a7.6,7.6,0,0,0-1.25.07V6.49a7.9,7.9,0,0,0,1.26.07h2.45c0-.5,0-.66,0-1.18a6.68,6.68,0,0,0-.07-1h1.32a7.45,7.45,0,0,0-.07,1.17c0,.41,0,.64,0,1h2.65a8.18,8.18,0,0,0,1.25-.07V7.76a8.66,8.66,0,0,0-1.24-.07Z"/><path class="cls-2" d="M23.63,5.83a7.79,7.79,0,0,0-1.06.06v-1a7.41,7.41,0,0,0,1.08.06H26.4a4.1,4.1,0,0,0-.06-.76h1.17a4.34,4.34,0,0,0-.06.76h2.94a6,6,0,0,0,1.06-.06v1a7.57,7.57,0,0,0-1-.06h-3V6.3h2.23a7.46,7.46,0,0,0,.95,0,6.69,6.69,0,0,0,0,.8V9a6.69,6.69,0,0,0,0,.8,8.39,8.39,0,0,0-1,0v.47h.77a6.23,6.23,0,0,0,1.07-.06v1a8.86,8.86,0,0,0-1-.06h-.79v1.3a.71.71,0,0,1-.31.7,2.46,2.46,0,0,1-1.3.2l-.69,0a4,4,0,0,0-.3-1,7.84,7.84,0,0,0,1.12.08c.37,0,.43,0,.43-.23v-1H23.63a8.91,8.91,0,0,0-1.06.06v-1a7.41,7.41,0,0,0,1.08.06h4.93V9.79H24.35a7.87,7.87,0,0,0-1,0,7,7,0,0,0,0-.8v-2a6.91,6.91,0,0,0,0-.8,7.46,7.46,0,0,0,1,0h2V5.83Zm2.12,7.34a5.92,5.92,0,0,0-1.4-1.32l.8-.64a5.79,5.79,0,0,1,1.44,1.24Zm-1.27-6v.52H26.4V7.13Zm0,1.28V9H26.4V8.41Zm3-.76h2.09V7.13H27.45Zm0,1.31h2.09V8.41H27.45Z"/><rect id="_スライス_" data-name="&lt;スライス&gt;" class="cls-3" width="36" height="36"/></g></g></g></svg>