<svg xmlns="http://www.w3.org/2000/svg" viewBox="0 0 153.06 120"><defs><style>.cls-1{fill:#a16f3b;}.cls-2{fill:#f9d1a2;}.cls-3{fill:#c28541;}.cls-4{fill:#754829;}.cls-5{fill:#b32f32;}.cls-6{fill:#5f70ac;}</style></defs><title>若年層</title><g id="Layer_2" data-name="Layer 2"><g id="若年層"><rect class="cls-1" x="16.59" y="17.35" width="38.15" height="44.41" transform="translate(71.34 79.12) rotate(180)"/><path class="cls-2" d="M36.64,51.46c23.82.22,27.83-46.06,0-46.06C10.17,5.4,11.23,51.22,36.64,51.46Z"/><path class="cls-3" d="M36.1,0C6,0,13.07,31.73,13.3,61.86l6.69-1,.09-44.92H52.51l-.12,45L58.6,62C58.89,30.26,66.68,0,36.1,0Z"/><path class="cls-2" d="M87,75.09h52.15l1-6.63c.67-4.4-1.76-8.6-5.33-9.24l-12.31-.14-.4-10.65c22.13-14.6,10.49-43-7.61-43-18.43,0-29.33,28.68-8.38,42.79l-.09,11.18-14.58-.09c-3.6.61-6,4.83-5.38,9.25Z"/><path class="cls-4" d="M113.87,0C95.32,0,90.14,14.59,95,31.93l1.79-.06,1.67-12.44c11.25,3,23.47-3,28.54-5.29,2.93-1.31,3.64,3.41,3.77,4.47.5,4.27,1.54,13.44,1.54,13.44l1.77,0C140.09,10.69,130.91,0,113.87,0Z"/><path class="cls-2" d="M151,77.78H137.25c1.85,14.88.95,7.62,5.22,42.22h10.59C151.06,85,151.47,92.37,151,77.78Z"/><path class="cls-2" d="M77,77.61l-.8,13.49L74.49,120h9.87c5.31-35.17,4.25-28.18,6.37-42.22C80.26,77.78,79.29,77.88,77,77.61Z"/><path class="cls-5" d="M134.81,59.22l-12.14-.14a8.5,8.5,0,0,1-16.8.28l-13.2-.08c-5.4-.44-15,2.63-15.47,11.15L76,91.1H86.16l.06,28.9h53l.53-28.72H152l.06-20C152.1,61.41,138.82,58.67,134.81,59.22Z"/><path class="cls-2" d="M66.48,70.28c-1-12.8-14.23-11.1-24-11.2L41.22,47.81h-10L29.57,59.17c-16.44.09-24.28-1.69-25.21,9.33L0,120H9.71l3.19-18,1.38,9.79c3.31-5.76,38.37-7.34,41.25,1.69l1.76-11.72,3,18.28h9.86Z"/><polygon class="cls-6" points="52.76 59.14 47.54 59.02 47.52 77.98 23.3 77.98 23.29 59.02 18.1 58.98 18.06 77.98 9.53 77.98 15.44 120 54.54 120 60.85 77.98 52.76 77.98 52.76 59.14"/></g></g></svg>