<svg xmlns="http://www.w3.org/2000/svg" viewBox="0 0 36 36"><defs><style>.cls-1{fill:#51b049;}.cls-2{fill:#fff;}.cls-3{fill:none;}</style></defs><title>バス停</title><g id="Layer_2" data-name="Layer 2"><g id="PC用アイコン"><g id="バス停"><circle class="cls-1" cx="18" cy="18" r="18"/><path class="cls-2" d="M18.94,13.18a5.53,5.53,0,1,0-1.78,0v.69h-4V26.36h4v4.07H15.31v0c-.22,0-.56.17-.85.79-.49,1-.77,1.62-1.18,2.49-.49,1-.11,1,1.19,1h7.12c1.29,0,1.68.09,1.18-1-.41-.87-.68-1.48-1.17-2.49-.35-.74-.77-.81-1-.79v0H18.94V26.36h4V13.88h-4ZM18,3.74A4,4,0,0,1,21.6,6H14.4A4,4,0,0,1,18,3.74Zm-3.62,5.7h7.24a4,4,0,0,1-7.24,0Zm6.94,6.26v8.85H14.86V15.7Z"/><rect id="_スライス_" data-name="&lt;スライス&gt;" class="cls-3" width="36" height="36"/></g></g></g></svg>