<svg xmlns="http://www.w3.org/2000/svg" viewBox="0 0 36 36"><defs><style>.cls-1{fill:#df4936;}.cls-2{fill:#fff;}.cls-3{fill:none;}</style></defs><title>デパート</title><g id="Layer_2" data-name="Layer 2"><g id="PC用アイコン"><g id="デパート"><circle class="cls-1" cx="18" cy="18" r="18"/><polygon class="cls-2" points="11.01 7.72 11.01 10.87 15.16 8.71 20.14 8.71 24.4 10.55 24.4 7.66 20.47 5.78 15.05 5.78 11.01 7.72"/><path class="cls-2" d="M33,27.18V23.45l.67.09V21.1l-9-2.24V17.31l9,2.42v-2.3l-9-2.61V12.07L20.53,10H15.66l-4.32,2.05v2.7L2.26,17.41v2.3l9.08-2.45v1.55L2.26,21.08v2.43l.66-.08v3.75H1v2H35v-2Zm-6.86-3.85H32.1v3.54H26.18ZM21.25,12.71,23.9,14V27.18H21.25Zm-4.37-.44h2.29V27.18H16.88Zm-13,11H9.79v3.54H3.87Zm8.26-9.19,2.66-1.33V27.18H12.13Z"/><rect id="_スライス_" data-name="&lt;スライス&gt;" class="cls-3" width="36" height="36"/></g></g></g></svg>