<svg xmlns="http://www.w3.org/2000/svg" viewBox="0 0 36.25 36"><defs><style>.cls-1{fill:#f89a41;}.cls-2{fill:#fff;}.cls-3{fill:none;}</style></defs><title>小中学校</title><g id="Layer_2" data-name="Layer 2"><g id="PC用アイコン"><g id="小中学校"><circle class="cls-1" cx="18" cy="18" r="18"/><path class="cls-2" d="M29.08,21.7V15.25H18.93V21.7H11.77V34.3h9.88V29.78h4.4V34.3h10.2V21.7ZM17.4,32.54H14.17V29.31H17.4Zm0-5.33H14.17V24H17.4Zm8.23,0H22.39V24h3.24Zm-1.68-6a2.45,2.45,0,1,1,2.45-2.45A2.45,2.45,0,0,1,24,21.18Zm9.73,11.36H30.44V29.31h3.24Zm0-5.33H30.44V24h3.24Z"/><path class="cls-2" d="M24,17.17a1.56,1.56,0,1,0,1.56,1.56A1.56,1.56,0,0,0,24,17.17ZM24.28,19a.3.3,0,0,1-.3.3H23A.35.35,0,0,1,22.6,19a.35.35,0,0,1,.35-.35h.73v-1a.29.29,0,0,1,.3-.3.3.3,0,0,1,.3.3Z"/><path class="cls-2" d="M7.8,6.56c0,.06,0,.11,0,.15L7.68,7a14.44,14.44,0,0,1-2.16,5.51,6,6,0,0,0-1.27-.85,11.25,11.25,0,0,0,2.1-5.47Zm3-2.89a13.71,13.71,0,0,0-.07,1.47v7.92c0,.58-.15.94-.49,1.13A2.38,2.38,0,0,1,9,14.4c-.45,0-1,0-1.53-.06a4.7,4.7,0,0,0-.39-1.41,11.73,11.73,0,0,0,1.72.16c.4,0,.51-.06.51-.29V5.12a11.36,11.36,0,0,0-.07-1.45Zm2.66,2.47A8.57,8.57,0,0,0,14,8.25a12.16,12.16,0,0,0,1.78,3.31,5.63,5.63,0,0,0-1.21.94A14.05,14.05,0,0,1,12.46,8s-.13-.52-.37-1.42Z"/><path class="cls-2" d="M20,4.81A7.7,7.7,0,0,0,20,3.51h1.51a8.44,8.44,0,0,0-.07,1.25v.78H24.7a10.31,10.31,0,0,0,1.09,0,7.83,7.83,0,0,0-.05,1v3.66a8,8,0,0,0,.06,1.2H24.38v-.72h-3v2.43a9.56,9.56,0,0,0,.08,1.49H20A10.07,10.07,0,0,0,20,13.12V10.69H17.21v.72H15.8a8.74,8.74,0,0,0,.06-1.2V6.54a8.43,8.43,0,0,0,0-1c.35,0,.6,0,1.08,0H20Zm-2.83,2v2.6H20V6.82Zm7.17,2.6V6.82h-3v2.6Z"/><rect id="_スライス_" data-name="&lt;スライス&gt;" class="cls-3" width="36" height="36"/></g></g></g></svg>