<svg xmlns="http://www.w3.org/2000/svg" viewBox="0 0 36 36"><defs><style>.cls-1{fill:#bd7e36;}.cls-2{fill:#fff;}.cls-3{fill:none;}</style></defs><title>病院</title><g id="Layer_2" data-name="Layer 2"><g id="PC用アイコン"><g id="病院"><circle class="cls-1" cx="18" cy="18" r="18"/><path class="cls-2" d="M33.16,28V15.29a.59.59,0,0,0-.59-.58H26a.58.58,0,0,0-.58.58V28H24.22V8.87a.58.58,0,0,0-.58-.58H12.27a.58.58,0,0,0-.59.58V28H10.39V15.29a.59.59,0,0,0-.59-.58H3.26a.59.59,0,0,0-.59.58V28H1.5V30.4h33V28Zm-6-11H31.5v1.68H27.15Zm0,3.44H31.5V22.1H27.15Zm0,3.44H31.5v1.68H27.15ZM4.38,17H8.73v1.68H4.38Zm0,3.44H8.73V22.1H4.38Zm0,3.44H8.73v1.68H4.38Zm14.87-4.47v2.88H16.78V19.39Zm-2.47-1.05V15.46h2.47v2.88Zm2.47,5.52V29H16.78V23.86Zm1.58-8.4h1.54v2.88H20.83Zm0,3.93h1.54v2.88H20.83Zm0,4.47h1.54V25.2H20.83Zm-5.27-13h1.58V9.31h1.57V10.9h1.58v1.56H18.71v1.59H17.14V12.46H15.56Zm-1.93,4.56h1.54v2.88H13.63Zm0,3.93h1.54v2.88H13.63Zm0,4.47h1.54V25.2H13.63Z"/><rect id="_スライス_" data-name="&lt;スライス&gt;" class="cls-3" width="36" height="36"/></g></g></g></svg>