<svg xmlns="http://www.w3.org/2000/svg" viewBox="0 0 36 36"><defs><style>.cls-1{fill:#51b049;}.cls-2{fill:#fff;}.cls-3{fill:none;}</style></defs><title>公園</title><g id="Layer_2" data-name="Layer 2"><g id="PC用アイコン"><g id="公園"><circle class="cls-1" cx="18" cy="18" r="18"/><path class="cls-2" d="M20.22,13.16a4.79,4.79,0,0,0,.19-1.32A4.89,4.89,0,0,0,16.7,7.1,4.88,4.88,0,0,0,7,7.07,4.89,4.89,0,0,0,3.4,13.21a4.88,4.88,0,0,0,2.77,8.9l.37,0A16.06,16.06,0,0,1,9.61,26.3c0,.13,0,.25,0,.36-.22,2.47-.83,5.65-.83,5.65h6.09a18.34,18.34,0,0,1-.82-5.6v-.08a15.62,15.62,0,0,1,3.21-4.53h.28a4.88,4.88,0,0,0,2.7-8.95ZM8.29,21.62a5,5,0,0,0,1.31.87c0,.32,0,.66,0,1L8,21.77A3.49,3.49,0,0,0,8.29,21.62ZM14,23.71c0-.5,0-1,0-1.4a5,5,0,0,0,1.14-.86,4.57,4.57,0,0,0,.74.35Z"/><rect class="cls-2" x="17.8" y="24.96" width="14.86" height="2.74"/><rect class="cls-2" x="19.83" y="28.63" width="2.69" height="3.89"/><rect class="cls-2" x="28.22" y="28.63" width="2.47" height="3.89"/><rect id="_スライス_" data-name="&lt;スライス&gt;" class="cls-3" width="36" height="36"/></g></g></g></svg>