<svg xmlns="http://www.w3.org/2000/svg" width="212" height="120" viewBox="0 0 212 120"><path fill="#6D6D6D" d="M59.9 87.8c0 4.8-7.1 1.5-18.4 1.5s-22.4 3.3-22.7-1.5c-.7-10.9 10.4-15.9 21.8-15.9s19.3 11.1 19.3 15.9z"/><path fill="#847B76" d="M66.8 85.4l-.3-2.8c.9-1.5 1.7-3.2 2.2-4.9.6-2.2.2-5-.8-7.8l-11.4 14.2c-2.5 8.7-6.5 6.5-3 7.7 2 .7 5.8-1.2 9.2-4.4 2 2 4.2 3.4 5.6 3.3 2.8-.1-.6.5-1.5-5.3z"/><path fill="#C0B7B2" d="M59.5 87.3c-.1 0-.1 0-.2-.1 0-.1 0-.2.1-.2 4.5-1.6 5.8-10.5 2.9-19.8 0-.1 0-.2.1-.2s.2 0 .2.1c3.1 9.4 1.7 18.5-3.1 20.2z"/><path fill="#847B76" d="M15.8 58.7s-5.4 7.4-5.4 14c-.2 1-.3 2.1-.1 3 .4 2.4 1.2 4.7 2.3 6.8-.1.4-.2.8-.3 1.1-1.6 5.7-4.9 4.5-2.1 5.1 1.2.2 3.2-.5 5.3-1.9 2.8 3.4 6.1 5.6 8.1 5.3 3.6-.6-.7.9-2-8.1-.1-1.1-5.8-25.3-5.8-25.3z"/><path fill="#C0B7B2" d="M21.4 86.5c-4.9 0-9-8.1-9-18.1 0-.1.1-.2.2-.2s.2.1.2.2c0 9.8 3.8 17.7 8.6 17.7.1 0 .2.1.2.2s-.1.2-.2.2z"/><path fill="#F8DFCA" d="M52.2 96.4c-.4-.1-2.4-.2-4.6-.2v-5c9.9-2.4 17.9-9.6 21.6-19 .5.1 1 .1 1.6.1 4.9 0 8.9-4 8.9-8.9s-4-8.9-8.9-8.9h-.2c-3-13.9-15.3-24.4-30.1-24.5-15 0-27.6 10.5-30.6 24.6h-.7c-4.9 0-8.9 4-8.9 8.9s4 8.9 8.9 8.9c.7 0 1.4-.1 2-.2 3 7.8 9 14.1 16.7 17.4 1.4.6 2.8 1.1 4.3 1.5v5.2c-2.1 0-3.9.1-4.4.2v23.6h24.3l.1-23.7z"/><path fill="#D0BAA3" d="M51.5 80c-.1 0-.1 0-.2-.1s-.1-.3 0-.4c.6-.6.7-1.7.3-3-.4-1.4-1.4-2.8-2.7-4.1-.1-.1-.1-.3 0-.4.1-.1.3-.1.4 0 1.4 1.3 2.3 2.9 2.8 4.3.5 1.5.3 2.8-.5 3.6.1.1 0 .1-.1.1zM27.5 80c-.1 0-.2 0-.2-.1-.8-.8-.9-2.1-.5-3.6.5-1.5 1.5-3 2.8-4.3.1-.1.3-.1.4 0 .1.1.1.3 0 .4-1.3 1.3-2.2 2.7-2.7 4.1-.4 1.3-.3 2.4.3 3 .1.1.1.3 0 .4.1.1 0 .1-.1.1z"/><path fill="#323333" d="M39.9 77.4c-5.7 0-7.2-3-7.2-3.1-.1-.3 0-.7.3-.8.3-.1.7 0 .8.3 0 .1 1.3 2.4 6.2 2.4s6.1-2.4 6.2-2.4c.1-.3.5-.4.8-.3.3.1.4.5.3.8-.2.2-1.7 3.1-7.4 3.1z"/><path fill="#E16010" d="M42.4 66c0 1-1.2 1.8-2.4 1.7-1.2 0-2.3-.8-2.3-1.8s1.2-2.7 2.4-2.7 2.3 1.8 2.3 2.8z"/><path fill="#373838" d="M30.6 56.9s-.4 0-.9.2c-.2-.3-.5-.7-.8-1.2-.1-.2-.2-.2-.3-.2-.3 0-.5.6-.5 1.2 0 .3.1.7.3.9.1.1.2.2.2.3-.3.5-.5 1.3-.5 2.4 0 3.8 2.5 3.5 2.5 3.5s2.5.3 2.5-3.5l-2.5-3.6zM49.5 56.9s-.4 0-.9.2c-.2-.3-.5-.7-.8-1.2-.1-.2-.2-.2-.3-.2-.3 0-.5.6-.5 1.2 0 .3.1.7.3.9.1.1.2.2.2.3-.3.5-.5 1.3-.5 2.4 0 3.8 2.5 3.5 2.5 3.5s2.5.3 2.5-3.5l-2.5-3.6z"/><path fill="#9898CA" d="M39.7 104.3c-5.8-.1-9.5-3.7-10.2-4.5v20.2h21.1v-20.2c-.6.7-4.6 4.7-10.9 4.5z"/><path fill="#CBCBE5" d="M60.5 100.8c-.3-.5-.7-1.1-1.2-1.7-.3-.5-.6-.8-.9-1-.5-.4-1.1-.8-2.1-1.2-3.6-1.2-7.5-1.6-7.5-1.6s-.1.2-.3.4c0 8.3-.3 16.2-.6 24.2h22.9c-1-2.4-2.1-5.1-3.4-8.1-1.8-3-4.8-8-6.9-11zM31.4 95.4s-2.6 0-5.1.9c-2.5.9-2.3 1.1-3.2 1.7-1.3 1-2.4 2.1-2.7 3-.1.1-.2.3-.3.5-1.9 2.4-5.7 8.7-7.8 12.4-1 2.2-1.9 4.2-2.7 6.1h24.1l-.6-22.2c-.5-.7-1.1-1.5-1.7-2.4z"/><path fill="#fff" d="M51.3 111.6c-.4 0-.7-.1-1-.4-.3-.3-.4-.6-.4-1s.1-.7.4-1c.6-.6 1.4-.6 2 0 .3.3.4.6.4 1s-.1.7-.4 1c-.3.2-.7.4-1 .4zm0-2.5c-.3 0-.5.1-.7.3-.2.2-.3.5-.3.7 0 .3.1.5.3.7.4.4 1.1.4 1.5 0 .2-.2.3-.5.3-.7 0-.3-.1-.5-.3-.7-.3-.2-.6-.3-.8-.3z"/><path fill="#C0B7B2" d="M29.8 108.8h2.3v.5h-2.3z"/><path fill="#fff" d="M32.1 109.5h-2.3c-.1 0-.2-.1-.2-.2v-.5c0-.1.1-.2.2-.2h2.3c.1 0 .2.1.2.2v.5c0 .1-.1.2-.2.2zm-2.1-.4h1.9v-.1h-1.9v.1z"/><path fill="#9898CA" d="M50.8 99.4h-21.6c-1.3 0-2.4-1.1-2.4-2.4v-3.2c0-1.3 1.1-2.4 2.4-2.4h21.6c1.3 0 2.4 1.1 2.4 2.4v3.2c0 1.3-1.1 2.4-2.4 2.4z"/><path fill="#8282A7" d="M24.4 104.6c0 .1-.4.2-.5 0-.5-.8-1.3-2.4-1.1-4.2.1-1 .5-1.8.8-2.3 1-1.3 2.6-1.7 3.3-1.3.9.5.9 2.3 0 3.4l-.2.2c-1.7 1.8-2.2 3.3-2.3 4.2zM32.2 98.4l21-4.5c-.2-2-1.2-2.3-2.2-2.4-3.1-.3-12.1-.3-12.7 0l-11.4 4.7 1.4 3.1h.1c.1.4.3.7.5 1l.2.2c1.7 1.8 2.2 3.3 2.3 4.2 0 .1.4.2.5 0 .5-.8 1.3-2.4 1.1-4.2-.1-.9-.5-1.6-.8-2.1z"/><path fill="#9898CA" d="M28.1 99.1c-.1.1-.3.1-.4 0-.3-.2-.7-.6-1.1-1.2-.3-.5-.4-.9-.4-1.2 0-.2.1-.3.2-.4.8-.4 2.2-.4 3 0 .1.1.2.2.2.4 0 .3-.1.8-.4 1.3-.4.5-.8.9-1.1 1.1z"/><circle fill="#9898CA" cx="7.9" cy="72.5" r="2.1"/><circle fill="#fff" cx="8.5" cy="71.3" r=".3"/><path fill="#847B76" d="M13.7 68.5s-4.1-2.3-5-8.7c-.8-5.8 1.6-12.5 1.6-12.5s2.9-8.7 7.7-13.3c3.9-3.8 13.4-9.5 19.6-9 4.1.3 9 .2 9.9 3.9 0 0 1.4-2.3 3.9-1.7 5.3 1.2 10.4 4.4 15.3 12.2 2.9 4.6 3.5 10.5 3.5 18.7 0 5.8-3.6 9.9-3.6 9.9s-1.7-7.9-5.1-12c0 0-.6-1.5.1 1.8 0 0-10.6-8.4-13.4-13 0 0-.5 5.5-17.6 8.9 0 0 4-5.8 3.9-6.6 0 0-7.2 6.2-12.1 8.5 0 0 2.1-5.4 2.2-7.4 0 0-6.9 9.9-11.1 13-1.8 1.2.2 7.3.2 7.3z"/><path fill="#C0B7B2" d="M13 61.6h-.1c-2.1-1.6-2.9-4.6-2.2-8.4.7-3.8 2.6-8 5.6-11.8.1-.1.2-.1.3 0 .1.1.1.2 0 .3-2.9 3.8-4.9 7.9-5.5 11.6-.6 3.7.1 6.6 2 8.1.1.1.1.2 0 .3 0-.1-.1-.1-.1-.1zM33.4 52.7h-.6c-.1 0-.2-.1-.2-.2s.1-.2.2-.2c2.4.3 5-1.2 7.1-4.3 2.2-3.1 3.7-7.4 4.2-12.1 0-.1.1-.2.2-.2s.2.1.2.2c-.6 4.8-2.1 9.2-4.3 12.3-2 2.9-4.4 4.5-6.8 4.5z"/><path fill="#F8DFCA" d="M203.4 54.7h-.2c-3-13.9-15.3-24.4-30.1-24.5-15-.1-27.6 10.4-30.5 24.5h-.7c-4.9 0-8.9 4-8.9 8.9s4 8.9 8.9 8.9c.7 0 1.4-.1 2-.2 3 7.8 9 14.1 16.7 17.4 1.4.6 2.8 1.1 4.3 1.5v5.2c-2.1 0-3.9.1-4.4.2v23.5h24.3v-23.5c-.4-.1-2.4-.2-4.6-.2v-5c9.9-2.4 17.9-9.6 21.6-19 .5.1 1 .1 1.6.1 4.1 0 7.6-2.8 8.6-6.7v-4.4c-1-3.9-4.4-6.7-8.6-6.7z"/><path fill="#F3F3F4" d="M181.1 95.5s-.8 6.9-8.6 6.9c-7.7 0-8.7-6.9-8.7-6.9-5.6 0-10.1 4.6-10 10.2v14.3h38.1v-14.4c.3-5.6-5.2-10.1-10.8-10.1z"/><path fill="#2C4157" d="M156.1 96.5c-3.5 1.8-4.8 4.1-4.8 4.1-1.7 2.6-4.7 8.2-6.6 12.3-1 2.4-2.2 4.7-3.4 7.1h25.4c-1.2-8.9-2.8-16.5-4-25.1-1.2 0-4.5.6-6.6 1.6z"/><path fill="#536373" d="M165.8 113.2c-.2-1.9-.4-3.9-.7-5.9-.7-4.5-1.5-8.6-2.4-12.3l-4.5 4.4c-.1.2-.2.4-.1.6l2.6 5.7-3.5 1.5c-.3.1-.4.5-.2.7l7.2 12.1h2.7c-.1-1.4-.3-2.8-.6-4.6-.2-.8-.3-1.5-.5-2.2z"/><path fill="#2C4157" d="M192.9 100.7s-1.3-2.3-4.8-4.1c-2-1.1-5.3-1.6-6.5-1.7-1.2 8.6-2.8 16.2-4 25.1h25.4c-1.2-2.3-2.4-4.7-3.4-7.1-2-4-4.9-9.7-6.7-12.2z"/><path fill="#536373" d="M187.1 107.2l-3.5-1.5 2.6-5.7c.1-.2.1-.4-.1-.6l-4.5-4.4c-.9 3.7-1.8 7.8-2.4 12.3-.3 2-.5 4-.7 5.9-.1.7-.3 1.4-.4 2.2-.3 1.8-.4 3.2-.6 4.6h2.7l7.2-12.1c0-.2-.1-.6-.3-.7z"/><path fill="#323333" d="M172.4 77.4c-5.7 0-7.2-3-7.2-3.1-.1-.3 0-.7.3-.8.3-.1.7 0 .8.3 0 .1 1.3 2.4 6.2 2.4s6.1-2.4 6.2-2.4c.1-.3.5-.4.8-.3.3.1.4.5.3.8-.2.2-1.7 3.1-7.4 3.1z"/><path fill="#E16010" d="M174.9 65.9c0 1-1.2 1.8-2.4 1.7-1.2 0-2.3-.8-2.3-1.8s1.2-2.7 2.4-2.7c1.2.1 2.3 1.9 2.3 2.8z"/><path fill="#373838" d="M163.1 56.8s2.5-.3 2.5 3.5-2.5 3.5-2.5 3.5-2.5.3-2.5-3.5c0-3.7 2.5-3.5 2.5-3.5zM182 56.9s2.5-.3 2.5 3.5-2.5 3.5-2.5 3.5-2.5.3-2.5-3.5 2.5-3.5 2.5-3.5z"/><path fill="#323333" d="M195.6 57.5s-30.4 1.4-37.6-13.8c0 0 .1 13-9.5 18.7 0 0-.7 1.2-.9 3.5 0 0-14.9-18.1 2.2-34.2 0 0 9.5-9.8 21.2-7.5 0 0 23.8-3.1 31.8 21.8 2.8 8.8-3.9 19.9-3.9 19.9l-3.3-8.4z"/><path fill="#373838" d="M155.1 64.2h-.1c-3.3-1.9-5.7-3.7-8.1-5.4-1.8-1.3-3.4-2.6-5.3-3.7-.1-.1-.2-.3-.1-.4.1-.1.3-.2.4-.1 1.9 1.1 3.6 2.4 5.4 3.7 2.3 1.7 4.7 3.5 8 5.4.1.1.2.3.1.4-.1.1-.2.1-.3.1zM176 63.8c-.1 0-.1 0-.2-.1-2.3-1.6-4.4-1.2-6.8-.3-.2.1-.3 0-.4-.2-.1-.2 0-.3.2-.4 2.2-.9 4.7-1.4 7.4.3.1.1.2.3.1.4-.1.3-.2.3-.3.3zM189.7 64.2c-.1 0-.2-.1-.3-.2-.1-.1 0-.3.1-.4 3.3-1.8 5.7-3.6 8-5.4 1.8-1.3 3.5-2.6 5.4-3.7.1-.1.3 0 .4.1.1.1 0 .3-.1.4-1.9 1.1-3.5 2.3-5.3 3.7-2.3 1.7-4.8 3.5-8.1 5.4 0 .1 0 .1-.1.1z"/><g opacity=".61"><ellipse fill="#F1F1F1" cx="162" cy="63.7" rx="6.9" ry="4"/><path fill="#070606" d="M162 67.8c-3.9 0-7.1-1.9-7.1-4.2 0-2.3 3.2-4.2 7.1-4.2 3.9 0 7.1 1.9 7.1 4.2 0 2.4-3.2 4.2-7.1 4.2zm0-8c-3.7 0-6.7 1.7-6.7 3.8 0 2.1 3 3.8 6.7 3.8s6.7-1.7 6.7-3.8c0-2-3-3.8-6.7-3.8z"/><ellipse fill="#F1F1F1" cx="182.8" cy="63.7" rx="6.9" ry="4"/><path fill="#070606" d="M182.8 67.8c-3.9 0-7.1-1.9-7.1-4.2 0-2.3 3.2-4.2 7.1-4.2 3.9 0 7.1 1.9 7.1 4.2 0 2.4-3.2 4.2-7.1 4.2zm0-8c-3.7 0-6.7 1.7-6.7 3.8 0 2.1 3 3.8 6.7 3.8s6.7-1.7 6.7-3.8c0-2-3-3.8-6.7-3.8z"/></g><path fill="#413F3E" d="M80.5 73.2h51.8v21.8h-51.8z"/><path fill="#F8DFCA" d="M89.7 120h29.8v-29.3c-.5-.2-2.9-.2-5.6-.2v-6.1c12.1-3 22-11.8 26.4-23.2.6.1 1.3.2 1.9.2 6 0 10.9-4.9 10.9-10.9s-4.9-10.9-10.9-10.9h-.2c-3.6-17.1-18.7-29.9-36.9-30-18.3-.1-33.7 12.8-37.4 30h-.8c-6 0-10.9 4.9-10.9 10.9s4.9 10.9 10.9 10.9c.9 0 1.7-.1 2.5-.3 3.7 9.6 11.1 17.3 20.5 21.4 1.7.7 3.4 1.3 5.2 1.8v6.3c-2.6 0-4.8.1-5.3.2l-.1 29.2z"/><path fill="#F3F3F4" d="M134.3 101.7c-2.7-4.1-4.7-12.3-17.5-11.4h-.1l-4 4.4c-4.5 5-12.3 5-16.8-.1l-3.8-4.3h-.3c-12.7-.9-14.7 7.3-17.5 11.4v18.3h59.9l.1-18.3z"/><path fill="#EDC4D8" d="M95.6 96.3c-.8-.5-1.5-1.1-2.1-1.9l-3.8-4.3h-.3c-12.7-.9-14.7 7.3-17.5 11.4-5.1 7.6-10.8 14.1-10.8 15.4 0 .7.8 1.8 1.9 3.1h33.8c1.4-8.8.9-17.2-1.2-23.7zM137 101.5c-2.7-4.1-4.7-12.3-17.5-11.4h-.3l-3.8 4.3c-.6.7-1.4 1.3-2.1 1.9-2.1 6.5-2.6 14.9-1.3 23.7h33.8c1.2-1.3 1.9-2.4 1.9-3.1.1-1.3-5.6-7.8-10.7-15.4z"/><circle fill="#EDEDEC" cx="113.5" cy="109.1" r=".9"/><path fill="#F3F3F4" d="M93.3 108.6h2.7v.5h-2.7z"/><path fill="#EDEDEC" d="M105.6 113.8h-2.4c-.3 0-.5-.2-.5-.5v-14.9c.5.1 1 .1 1.6.1.6 0 1.2-.1 1.7-.1v15c.1.1-.1.4-.4.4z"/><circle fill="#EDC4D8" cx="104.5" cy="103.4" r=".9"/><circle fill="#EDC4D8" cx="104.5" cy="108.2" r=".9"/><path fill="#323333" d="M104.5 67.4c-7 0-8.8-3.6-8.9-3.8-.2-.4 0-.8.3-1 .4-.2.8 0 1 .3.1.1 1.6 3 7.5 3 6 0 7.5-2.9 7.5-3 .2-.4.6-.5 1-.3s.5.6.3 1c0 .2-1.8 3.8-8.7 3.8z"/><path fill="#E16010" d="M107.5 53.4c0 1.2-1.4 2.1-2.9 2.1s-2.9-1-2.9-2.2c0-1.2 1.4-3.3 2.9-3.3s2.9 2.2 2.9 3.4z"/><path fill="#373838" d="M93 42.2s-.5-.1-1.1.2c-.3-.4-.6-.9-1-1.5-.1-.2-.3-.3-.4-.3-.4 0-.6.7-.6 1.4 0 .4.1.8.3 1.2.1.1.2.2.3.4-.4.6-.6 1.6-.6 2.9 0 4.6 3 4.3 3 4.3s3.1.3 3.1-4.3c.1-4.6-3-4.3-3-4.3zM116.1 42.2s-.5-.1-1.1.2c-.3-.4-.6-.9-1-1.5-.1-.2-.3-.3-.4-.3-.4 0-.6.7-.6 1.4 0 .4.1.8.3 1.2.1.1.2.2.3.4-.4.6-.6 1.6-.6 2.9 0 4.6 3 4.3 3 4.3s3.1.3 3.1-4.3c.1-4.6-3-4.3-3-4.3z"/><circle opacity=".44" fill="#E8B9BC" cx="126.1" cy="55.5" r="6.9"/><circle opacity=".44" fill="#E8B9BC" cx="83.1" cy="55.5" r="6.9"/><path fill="#705A3E" d="M139.5 108.5c1.8-2.2 2.5-4.8 2.6-7.7.1-1.9.3-3.7.6-5.6 1.1-5.8 1-11.7.7-17.5-.2-4-.9-8-1.4-12.1-.1-1.2-.3-2.5-.3-3.7.1-2.7.5-5.4.7-8.1.4-8.8-.3-17.4-2.8-25.9-3.6-12.7-11.3-21.4-24.5-24.6-1.7-.4-3.4-.7-5.1-1-1.3-.2-2.6-.3-3.8-.3h-1.9c-1.3 0-2.5.1-3.8.3-13 1.6-22.9 7.6-28.1 20.2-4.9 11.7-5.7 23.9-4.4 36.2.5 5 .5 9.9-1.2 14.6-2 5.8-1.4 11.5.1 17.2 1.2 4.4 2.7 8.7 4.2 13.1.4 1.2.4 2.3-.2 3.4-.6 1.1-1.1 2.3-1.4 3.5-.7 3.5-.5 6.7.5 9.5h20.2l-3.4-4.5c-.2-.3-.4-.5-.7-.8-.2-.2-.2-.6.1-.8.1-.1.3-.1.4-.1 3.2-.2 5.8-1.8 8.4-3.6.1-.1.2-.1.2-.2.3-.4.1-1-.4-1h-.4l-3.2.8c-2.4.3-5 .2-6.4-2-2-3.3-3-7.2-1.7-11 1.8-5.5 2.6-11.1 2.8-16.8.1-5.4.7-10.9-1-16.1-1.5-4.8-1.1-9.6 0-14.3.9-3.8 2.4-7.3 7.3-7.6.3 0 .6-.6.7-1l1.6-4.7.3.1c-.5 1.8-1 3.7-1.5 5.6h10.6l2.2-6.3.3.1c-.5 2-1 4.1-1.6 6.1 4.1.5 9.3-2.7 11-6.8l3.6-8.9c2.5 1.5 5.2 4.9 6.9 8.7 2.6 6 2.8 12.3 3 18.7 0 .4-.1.9-.2 1.3-.9 3.3-1.4 6.6-1.9 10-1.3 8.6-1 17.2-1 25.9.1 6.5.8 13.1-1 19.5-.2.5-.5 1.3-.9 1.4-3.2.7-6.6 2.6-9.5-.8 0-.1-.2-.2-.3-.1-.9 1-.3 1.8.4 2.4 2.2 1.9 4.7 3 7.9 2.7-.9 1.5-1.8 2.9-2.8 4.2h17.2l.8-5.4c0-2.2-.1-4.4 1.5-6.2z"/></svg>