<svg xmlns="http://www.w3.org/2000/svg" viewBox="0 0 59.98 60"><defs><style>.cls-1{fill:#ecc46a;}</style></defs><title>駅</title><g id="Layer_2" data-name="Layer 2"><g id="SP用アイコン"><g id="駅"><g id="駅のコピー"><path class="cls-1" d="M39.69,42A2.09,2.09,0,1,0,37.61,40,2.08,2.08,0,0,0,39.69,42Z"/><rect class="cls-1" x="22.76" y="11.55" width="14.36" height="2.45"/><path class="cls-1" d="M18.59,19v8.4A1.6,1.6,0,0,0,20.18,29H39.72a1.6,1.6,0,0,0,1.59-1.59V19a1.6,1.6,0,0,0-1.59-1.58H20.18A1.6,1.6,0,0,0,18.59,19Z"/><path class="cls-1" d="M39.16,51.5H20.83L17,57a29.65,29.65,0,0,0,26,0Z"/><path class="cls-1" d="M30,0A30,30,0,0,0,13.6,55.08L19.29,47a7,7,0,0,1-5.78-6.86V14.41a7,7,0,0,1,7-7H39.74a7,7,0,0,1,7,7V40.09a7,7,0,0,1-6,6.9l5.67,8.09A30,30,0,0,0,30,0Z"/><path class="cls-1" d="M20.41,42A2.09,2.09,0,1,0,18.33,40,2.08,2.08,0,0,0,20.41,42Z"/><polygon class="cls-1" points="23.93 47.07 22.33 49.35 37.66 49.35 36.06 47.07 23.93 47.07"/></g></g></g></g></svg>